<?xml version="1.0" ?><svg enable-background="new 0 0 80 56" id="Layer_1" version="1.1" viewBox="0 0 80 56" xml:space="preserve" xmlns="http://www.w3.org/2000/svg" xmlns:xlink="http://www.w3.org/1999/xlink"><polygon opacity="0.3" points="4,25.4 18,18.4 72,45.4 58,52.4 "/><g><path d="M70.9,29.8l0.5,0.3c0.8,0.5,1.5,1.3,1.9,2.2c0.3,0.7,0.7,1.4,0.7,2.1l0,1.1c0,0.4-0.3,0.8-0.6,1   c-0.3,0.2-0.6,0-0.6-0.3l0-1.7c0-0.2,0.1-0.4,0.1-0.5c0.2-0.3,0.4-0.7,0.2-1.1c-0.4-1.1-1.2-2.1-2.1-2.6l-0.3-0.2   C70.7,30,70.8,29.8,70.9,29.8L70.9,29.8z" fill="#2D3134"/></g><g opacity="0.39"><path d="M70.9,29.8l0.5,0.3c0.8,0.5,1.5,1.3,1.9,2.2c0.3,0.7,0.7,1.4,0.7,2.1l0,1.1c0,0.4-0.3,0.8-0.6,1c-0.3,0.2-0.6,0-0.6-0.3   l0-1.7c0-0.2,0.1-0.4,0.1-0.5c0.2-0.3,0.4-0.7,0.2-1.1c-0.4-1.1-1.2-2.1-2.1-2.6l-0.3-0.2C70.7,30,70.8,29.8,70.9,29.8L70.9,29.8z"/></g><polygon fill="#2D3134" points="15.6,28.8 18.2,27.5 18.2,26.1 15.6,26.1 "/><polygon opacity="0.39" points="15.6,28.8 18.2,27.5 18.2,26.1 15.6,26.1 "/><polygon fill="#2D3134" points="43.6,42.8 46.2,41.5 46.2,40.1 43.6,40.1 "/><polygon opacity="0.39" points="43.6,42.8 46.2,41.5 46.2,40.1 43.6,40.1 "/><g><path d="M20.2,26.4c-0.7-0.4-1.4-0.4-1.9-0.2l0,0l-1.4,0.7l0,0c-0.5,0.2-0.9,0.8-0.9,1.6c0,1.5,1.3,3.4,2.8,4.2   c0.8,0.4,1.5,0.4,2,0.2c0,0,1.4-0.7,1.5-0.8c0.5-0.3,0.7-0.8,0.7-1.5C23,29,21.7,27.1,20.2,26.4z" fill="#2D3134"/><path d="M20.8,32.8c0.2-0.1,1.4-0.7,1.5-0.7c0.5-0.3,0.7-0.8,0.7-1.5c0-0.6-0.2-1.3-0.5-1.9l-1.4,0.7   c0.3,0.6,0.5,1.3,0.5,1.9C21.6,32,21.3,32.6,20.8,32.8z" opacity="0.39"/><path d="M20.9,30.9c0,1.2-0.9,1.6-2.1,1c-1.2-0.6-2.1-2-2.1-3.2c0-1.2,0.9-1.6,2.1-1C20,28.3,20.9,29.7,20.9,30.9z" fill="#A9ABB0"/><path d="M19,31.9c-1.2-0.6-2.1-2-2.1-3.2c0-0.6,0.2-1,0.6-1.2c-0.5,0.1-0.8,0.6-0.8,1.2c0,1.2,0.9,2.6,2.1,3.2   c0.6,0.3,1.1,0.3,1.5,0.1C19.9,32.2,19.5,32.1,19,31.9z" fill="#808285"/><path d="M19.9,30.2c0,0.5-0.4,0.7-0.9,0.4s-0.9-0.8-0.9-1.3c0-0.5,0.4-0.7,0.9-0.4S19.9,29.7,19.9,30.2z" fill="#2D3134"/><path d="M19.9,30.2c0,0.5-0.4,0.7-0.9,0.4s-0.9-0.8-0.9-1.3c0-0.5,0.4-0.7,0.9-0.4S19.9,29.7,19.9,30.2z" opacity="0.39"/><path d="M19.7,30.3c0,0.5-0.4,0.7-0.9,0.4c-0.5-0.2-0.9-0.8-0.9-1.3s0.4-0.7,0.9-0.4C19.3,29.2,19.7,29.8,19.7,30.3   z" fill="#2D3134"/><path d="M21.6,31.3c0,1.5-1.3,2.2-2.8,1.4C17.3,31.9,16,30,16,28.5c0-1.5,1.3-2.2,2.8-1.4   C20.3,27.8,21.6,29.7,21.6,31.3z" opacity="6.000000e-002"/></g><g><path d="M48.2,40.3c-0.7-0.4-1.4-0.4-1.9-0.2l0,0l-1.4,0.7l0,0c-0.5,0.2-0.9,0.8-0.9,1.6c0,1.5,1.3,3.4,2.8,4.2   c0.8,0.4,1.5,0.4,2,0.2c0,0,1.4-0.7,1.5-0.8c0.5-0.3,0.7-0.8,0.7-1.5C51,43,49.7,41.1,48.2,40.3z" fill="#2D3134"/><path d="M48.8,46.8c0.2-0.1,1.4-0.7,1.5-0.7c0.5-0.3,0.7-0.8,0.7-1.5c0-0.6-0.2-1.3-0.5-1.9l-1.4,0.7   c0.3,0.6,0.5,1.3,0.5,1.9C49.6,46,49.3,46.5,48.8,46.8z" opacity="0.39"/><path d="M48.9,44.9c0,1.2-0.9,1.6-2.1,1s-2.1-2-2.1-3.2s0.9-1.6,2.1-1S48.9,43.7,48.9,44.9z" fill="#A9ABB0"/><path d="M47,45.8c-1.2-0.6-2.1-2-2.1-3.2c0-0.6,0.2-1,0.6-1.2c-0.5,0.1-0.8,0.6-0.8,1.2c0,1.2,0.9,2.6,2.1,3.2   c0.6,0.3,1.1,0.3,1.5,0.1C47.9,46.1,47.5,46.1,47,45.8z" fill="#808285"/><path d="M47.8,44.2c0,0.5-0.4,0.7-0.9,0.4c-0.5-0.2-0.9-0.8-0.9-1.3c0-0.5,0.4-0.7,0.9-0.4   C47.5,43.1,47.8,43.7,47.8,44.2z" fill="#2D3134"/><path d="M47.8,44.2c0,0.5-0.4,0.7-0.9,0.4c-0.5-0.2-0.9-0.8-0.9-1.3c0-0.5,0.4-0.7,0.9-0.4   C47.5,43.1,47.8,43.7,47.8,44.2z" opacity="0.39"/><path d="M47.7,44.3c0,0.5-0.4,0.7-0.9,0.4c-0.5-0.2-0.9-0.8-0.9-1.3s0.4-0.7,0.9-0.4C47.3,43.2,47.7,43.8,47.7,44.3   z" fill="#2D3134"/><path d="M49.6,45.2c0,1.5-1.3,2.2-2.8,1.4S44,44,44,42.4s1.3-2.2,2.8-1.4S49.6,43.7,49.6,45.2z" opacity="6.000000e-002"/></g><path d="M66.1,25.1L16,0L4,6l0,0v15l2.6,1.3l9.5,4.7c0.3-0.4,0.9-0.7,1.5-0.7c0.5,0,0.9,0.1,1.4,0.4  c1.2,0.6,2.3,1.9,2.8,3.2L24,31v2l8,4v-2l12,6c0.3-0.5,0.9-0.7,1.5-0.7c0.5,0,0.9,0.1,1.4,0.4c1.3,0.6,2.3,1.9,2.8,3.2L60,49v0l0,0  l12-6v-8.4C72,30.6,69.7,26.9,66.1,25.1z" fill="#CC291F"/><polygon fill="#262626" points="60,51 72,45 72,43 60,49 "/><polygon opacity="0.3" points="4.8,17.1 4.8,9.7 23.2,18.9 23.2,26.3 "/><polygon fill="#656565" points="23,19 5,10 5,17 23,26 "/><polygon opacity="0.2" points="23,19 5,10 23,22.9 "/><polygon opacity="0.3" points="5.2,16.9 5.2,10.1 5,10 5,17 23,26 23,25.8 "/><path d="M24,18v15l4,2V20L24,18z M27.8,34.7l-3.6-1.8V18.3l3.6,1.8V34.7z" opacity="0.3"/><path d="M28,20v15l4,2V22L28,20z M31.8,36.7l-3.6-1.8V20.3l3.6,1.8V36.7z" opacity="0.3"/><g><path d="M57.8,42.8v-6.5l0.4-0.1c0.7,1.4,1,2.9,1,4.4v2.9L57.8,42.8z" opacity="0.3"/><path d="M58,36.3v6.4l1,0.5v-2.6C59,39.1,58.6,37.6,58,36.3z" fill="#656565"/></g><path d="M53,32.5v13l4,2v-13L53,32.5z M56.8,47.2l-3.6-1.8V32.8l3.6,1.8V47.2z" opacity="0.3"/><polygon opacity="0.3" points="28.8,28.6 28.8,22.2 31.2,23.4 31.2,29.8 "/><polygon fill="#656565" points="29,22.5 31,23.5 31,29.5 29,28.5 "/><polygon opacity="0.3" points="53.8,41.1 53.8,34.6 56.2,35.8 56.2,42.3 "/><polygon fill="#656565" points="54,35 56,36 56,42 54,41 "/><polygon opacity="0.3" points="54.2,40.9 54.2,35.1 54,35 54,41 56,42 56,41.8 "/><polygon opacity="0.3" points="24.8,26.6 24.8,20.2 27.2,21.4 27.2,27.8 "/><polygon fill="#656565" points="25,20.5 27,21.5 27,27.5 25,26.5 "/><polygon opacity="0.3" points="29.2,28.4 29.2,22.6 29,22.5 29,28.5 31,29.5 31,29.3 "/><polygon opacity="0.3" points="25.2,26.4 25.2,20.6 25,20.5 25,26.5 27,27.5 27,27.3 "/><polygon opacity="0.3" points="32.8,31.1 32.8,23.7 52.2,33.4 52.2,40.8 "/><polygon fill="#656565" points="52,33.5 33,24 33,31 52,40.5 "/><polygon opacity="0.2" points="52,33.5 33,24 52,36.9 "/><polygon opacity="0.3" points="33.2,30.9 33.2,24.1 33,24 33,31 52,40.5 52,40.3 "/><polygon fill="#999999" points="62,47 60,48 60,47 62,46 "/><polygon fill="#FF9900" points="59,47.5 60,48 60,47 59,46.5 "/><polygon fill="#999999" points="72,42 70,43 70,42 72,41 "/><polygon fill="#999999" points="64,47.2 64,48.2 69,45.7 69,44.7 "/><path d="M60.8,40.6c0-2.7-0.9-5.3-2.6-7.3L58,33.1l10.5-5.3l0.1,0.1c1.7,1.8,2.6,4.2,2.6,6.7v4l-10.4,5.2L60.8,40.6z" opacity="0.3"/><path d="M61,43.5l10-5v-3.9c0-2.4-0.9-4.8-2.5-6.5l-10.1,5.1c1.7,2.1,2.7,4.7,2.7,7.5L61,43.5z" fill="#656565"/><g><polygon fill="#FFFFFF" opacity="0.1" points="56,22.8 50,25.8 40,20.8 46,17.8  "/><polygon opacity="6.000000e-002" points="50,26 50,25.8 40,20.8 40,21  "/><polygon opacity="0.39" points="50,26 50,25.8 56,22.8 56,23  "/></g><g><polygon fill="#FFFFFF" opacity="0.1" points="28,8.8 22,11.8 12,6.8 18,3.8  "/><polygon opacity="6.000000e-002" points="22,12 22,11.8 12,6.8 12,7  "/><polygon opacity="0.39" points="22,12 22,11.8 28,8.8 28,9  "/></g><polygon opacity="0.3" points="60,46.2 72,40.2 72,40 60,46 "/><polygon opacity="0.6" points="63,45.7 69,42.7 69,42.5 63,45.5 "/><polygon opacity="0.6" points="63,46.1 69,43.1 69,42.9 63,45.9 "/><polygon opacity="0.6" points="63,46.5 69,43.5 69,43.3 63,46.3 "/><polygon opacity="0.6" points="63,46.9 69,43.9 69,43.7 63,46.7 "/><polygon fill="#FFFFFF" opacity="0.15" points="60,46.4 72,40.4 72,40.2 60,46.2 "/><g><polygon opacity="0.3" points="60,46.2 57,44.7 57,44.5 60,46  "/><polygon fill="#FFFFFF" opacity="0.15" points="60,46.4 57,44.9 57,44.7 60,46.2  "/></g><g><polygon opacity="0.3" points="53,42.7 32,32.2 32,32 53,42.5  "/><polygon fill="#FFFFFF" opacity="0.15" points="53,42.9 32,32.4 32,32.2 53,42.7  "/></g><g><polygon opacity="0.3" points="24,28.2 4,18.2 4,18 24,28  "/><polygon fill="#FFFFFF" opacity="0.15" points="24,28.4 4,18.4 4,18.2 24,28.2  "/></g><g><path d="M15.6,28.5c0-0.6,0.2-1.1,0.5-1.4L4,21v2l11.6,5.8C15.6,28.7,15.6,28.6,15.6,28.5z" fill="#262626"/><path d="M21.7,29.9c0.2,0.5,0.3,0.9,0.3,1.4c0,0.2,0,0.5-0.1,0.7l2.1,1v-2L21.7,29.9z" fill="#262626"/></g><g><path d="M43.6,42.4c0-0.6,0.2-1.1,0.4-1.4l-12-6v2l11.6,5.8C43.6,42.7,43.6,42.6,43.6,42.4z" fill="#262626"/><path d="M49.8,43.9c0.2,0.5,0.2,0.9,0.2,1.4c0,0.3,0,0.5-0.1,0.7L60,51v-2L49.8,43.9z" fill="#262626"/></g><polygon opacity="0.5" points="60.8,43.8 60.8,42.8 71.2,37.6 71.2,38.6 "/><polygon opacity="0.5" points="57.8,42.8 57.8,41.8 59.2,42.5 59.2,43.5 "/><path d="M66.3,37.8c-0.1-0.1-0.2-0.1-0.3,0l-3.8,4.3c-0.1,0.1-0.1,0.2,0,0.3s0.2,0.1,0.3,0l1-1.2v1l0.3-0.2v-1.1h0  l2.5-2.9C66.4,38,66.4,37.9,66.3,37.8z" fill="#2D3134"/><path d="M69.9,35.8c-0.1-0.1-0.2-0.1-0.3,0l-3.8,4.3c-0.1,0.1-0.1,0.2,0,0.3c0.1,0.1,0.2,0.1,0.3,0l0.9-1v1.1  l0.3-0.1V39l2.6-3C70,36,70,35.9,69.9,35.8z" fill="#2D3134"/><path d="M65.4,29.4c0.5,1.6,0.8,3.2,0.8,4.9c0,2.9-0.8,5.6-2.1,7.9l1.8-0.9c0,0,3.6-3.4,3.6-8.3  c0-1.8-0.4-3.6-1.1-5.2L65.4,29.4z" opacity="0.2"/><polygon opacity="0.2" points="31,29.4 31,26 29,23.8 29,26.3 "/><polygon opacity="0.2" points="27,24.8 27,22.6 25,20.4 25,21.7 "/><ellipse cx="61.3" cy="46.8" opacity="0.2" rx="0.5" ry="0.3" transform="matrix(-0.6313 0.7756 -0.7756 -0.6313 136.303 28.888)"/><ellipse cx="60.6" cy="47.1" opacity="0.2" rx="0.5" ry="0.3" transform="matrix(-0.6313 0.7756 -0.7756 -0.6313 135.4757 29.8813)"/><ellipse cx="71.4" cy="41.8" opacity="0.2" rx="0.5" ry="0.3" transform="matrix(-0.6313 0.7756 -0.7756 -0.6313 148.9011 12.8985)"/><ellipse cx="70.7" cy="42.1" opacity="0.2" rx="0.5" ry="0.3" transform="matrix(-0.6313 0.7756 -0.7756 -0.6313 148.0738 13.8918)"/><polygon fill="#FFFFFF" opacity="0.2" points="62,47 60,48 60,47 "/><polygon fill="#FFFFFF" opacity="0.2" points="72,42 70,43 72,41 "/><g><path d="M59.8,35.6l0.5,0.2c0.8,0.5,1.5,1.3,1.9,2.2c0.3,0.7,0.7,1.4,0.7,2.1l0,1.1c0,0.4-0.3,0.8-0.6,1   c-0.3,0.2-0.6,0-0.6-0.3l0-1.7c0-0.2,0.1-0.4,0.1-0.5c0.2-0.3,0.4-0.7,0.2-1.1c-0.4-1.1-1.2-2.1-2.1-2.6l-0.3-0.2   C59.5,35.8,59.6,35.6,59.8,35.6L59.8,35.6z" fill="#2D3134"/></g><path d="M72,34.6c0-3-1.2-5.8-3.3-7.8l-12,6c2.1,2,3.3,4.8,3.3,7.8L60,51l12-6V34.6z" opacity="0.39"/><path d="M54.1,31L4,6v17l11.6,5.8c0-0.1,0-0.2,0-0.3c0-0.6,0.2-1.1,0.5-1.4c0.3-0.4,0.9-0.7,1.5-0.7  c0.5,0,0.9,0.1,1.4,0.4c1.2,0.6,2.3,1.9,2.8,3.2l0,0c0.2,0.5,0.3,0.9,0.3,1.4c0,0.2,0,0.5-0.1,0.7l21.7,10.8c0-0.1,0-0.3,0-0.4  c0-0.6,0.2-1.1,0.4-1.4l0,0c0.3-0.5,0.9-0.7,1.5-0.7c0.5,0,0.9,0.1,1.4,0.4c1.3,0.6,2.3,1.9,2.8,3.2c0.2,0.5,0.2,0.9,0.2,1.4  c0,0.3,0,0.5-0.1,0.7L60,51V40.6C60,36.6,57.7,32.9,54.1,31z" opacity="6.000000e-002"/></svg>